# xmcd
#
# Track frame offsets:
#	182
#	18110
#	33805
#	49080
#	65092
#	80490
#	97282
#	116015
#	134007
#	150542
#	166882
#
# Disc length: 2437 seconds
#
# Revision: 1
# Processed by: cddbd v1.5.1PL0 Copyright (c) Steve Scherf et al.
# Submitted via: audiograbber 1.82.02
#
DISCID=8e09830b
DTITLE=Rhodes and Marshall - Too Young for Elvis
DYEAR=1900
DGENRE=Country
TTITLE0=Cool New Country
TTITLE1=Beck 'n' Call
TTITLE2=Rockin' Me Blue
TTITLE3=In Love
TTITLE4=Too Young For Elvis
TTITLE5=All in A Days Work
TTITLE6=Lovestruck
TTITLE7=Brand New Me
TTITLE8=Even If
TTITLE9=Dance With Me
TTITLE10=In My Dreams
EXTD=Tomcat Records TCCD94502
EXTT0=
EXTT1=
EXTT2=
EXTT3=
EXTT4=
EXTT5=
EXTT6=
EXTT7=
EXTT8=
EXTT9=
EXTT10=
PLAYORDER=
